<svg data-v-5f19e91b="" xmlns="http://www.w3.org/2000/svg" width="296" height="90" viewBox="0 0 296 90"><!----> <!----> <!----> <g data-v-5f19e91b="" id="639b7eb6-fe8b-8b87-7bda-fd6190c7a4fe" fill="white" transform="matrix(5.464481102134876,0,0,5.464481102134876,108.45100005074937,17.62295246376292)"><path d="M8.58 7.55C8.58 6.58 7.95 5.66 6.59 5.43C8.04 5.18 8.85 4.38 8.85 3.09C8.85 1.71 7.71 0.88 5.45 0.88L2.16 0.88L0.29 10.50L4.35 10.50C6.61 10.50 8.58 9.83 8.58 7.55ZM6.71 7.50C6.71 8.76 5.80 9.09 4.12 9.09L2.42 9.09L3.00 6.19L4.70 6.19C6.09 6.19 6.71 6.65 6.71 7.50ZM6.97 3.36C6.97 4.37 6.33 4.79 4.72 4.79L3.26 4.79L3.75 2.30L5.25 2.30C6.34 2.30 6.97 2.55 6.97 3.36ZM10.19 10.50L12.01 10.50L14.17-0.48L12.33-0.48ZM13.89 10.50L15.71 10.50L17.18 3.00L15.36 3.00ZM15.53 1.85L17.40 1.85L17.75 0.14L15.88 0.14ZM22.46 10.50L24.28 10.50L25.16 5.98C25.51 4.19 25.21 2.86 23.16 2.86C21.99 2.86 21.13 3.39 20.58 4.35L20.75 3.00L18.98 3.00C18.96 3.28 18.87 3.98 18.75 4.59L17.58 10.50L19.42 10.50L20.13 6.75C20.43 5.17 21.29 4.23 22.36 4.23C23.76 4.23 23.51 5.32 23.30 6.30ZM30.97 10.50L32.91 10.50L30.91 5.96L34.26 3.00L32.14 3.00L28.80 6.17L30.10-0.48L28.28-0.48L26.15 10.50L27.97 10.50L28.55 7.62L29.55 7.03Z"></path></g> <!----> <g data-v-5f19e91b="" id="335e4ca1-5622-81a2-bcdf-acb56a5f207d" transform="matrix(0.9142810374388896,0,0,0.9142810374388896,0.047464262202794316,0.06694652153193914)" stroke="none" fill="white"><g><path d="M5.116,9.491h89.767c2.405,0,4.355-1.95,4.355-4.355c0-2.405-1.95-4.355-4.355-4.355H5.116   c-2.405,0-4.354,1.95-4.354,4.355C0.761,7.541,2.711,9.491,5.116,9.491z"></path><path d="M5.116,54.298H50c2.404,0,4.354-1.949,4.354-4.354c0-2.406-1.95-4.355-4.354-4.355H5.116c-2.405,0-4.354,1.95-4.354,4.355   C0.761,52.349,2.711,54.298,5.116,54.298z"></path><path d="M36.462,90.396H5.116c-2.405,0-4.354,1.95-4.354,4.355s1.95,4.355,4.354,4.355h31.347c2.406,0,4.355-1.95,4.355-4.355   S38.869,90.396,36.462,90.396z"></path><path d="M36.462,68.104H5.116c-2.405,0-4.354,1.949-4.354,4.355c0,2.405,1.95,4.355,4.354,4.355h31.347   c2.406,0,4.355-1.95,4.355-4.355C40.818,70.054,38.869,68.104,36.462,68.104z"></path><path d="M5.116,32.232h58.462c2.405,0,4.355-1.95,4.355-4.355c0-2.405-1.95-4.355-4.355-4.355H5.116   c-2.405,0-4.354,1.95-4.354,4.355C0.761,30.282,2.711,32.232,5.116,32.232z"></path><path d="M97.258,48.285L78.23,35.906c-0.969-0.63-2.147-0.85-3.277-0.609c-1.13,0.239-2.119,0.917-2.748,1.885L50.239,70.945   c-0.442,0.68-0.685,1.469-0.704,2.279l-0.475,21.544c-0.033,1.508,0.715,2.924,1.979,3.747c0.719,0.467,1.546,0.704,2.376,0.704   c0.63,0,1.264-0.137,1.852-0.414l19.504-9.165c0.733-0.345,1.355-0.888,1.799-1.567l21.964-33.763   C99.846,52.294,99.274,49.597,97.258,48.285z M69.943,82.284l-12.02,5.647l0.293-13.275l18.914-29.075l11.727,7.629L69.943,82.284z   "></path></g></g></svg>